<svg width="375" height="111" viewBox="0 0 375 111" fill="none" xmlns="http://www.w3.org/2000/svg">
<g clip-path="url(#clip0_2399_5686)">
<rect width="375" height="111" fill="url(#paint0_linear_2399_5686)"/>
<path d="M23.5888 0L23.5887 375M42.9436 0L42.9436 375M62.2985 0L62.2985 375M81.6533 0L81.6533 375M101.008 0L101.008 375M120.363 0L120.363 375M139.718 0L139.718 375M159.073 0L159.073 375M178.428 0L178.428 375M197.782 0L197.782 375M217.137 0L217.137 375M236.492 0L236.492 375M255.847 0L255.847 375M275.202 0L275.202 375M294.557 0L294.557 375M313.912 0V375M333.266 0L333.266 375M352.621 0L352.621 375M375 23.5886L1.43825e-05 23.5886M375 42.9434L1.35364e-05 42.9434M375 62.2983L1.26904e-05 62.2983M375 81.6532L1.18444e-05 81.6531M375 101.008L1.09984e-05 101.008M375 120.363L1.01523e-05 120.363M375 139.718L9.3063e-06 139.718M375 159.073L8.46028e-06 159.073M375 178.427L7.61425e-06 178.427M375 197.782L6.76822e-06 197.782M375 217.137L5.92219e-06 217.137M375 236.492L5.07617e-06 236.492M375 255.847L4.23014e-06 255.847M375 275.202L3.38411e-06 275.202M375 294.557L2.53808e-06 294.557M375 313.911L1.69205e-06 313.911M375 333.266L8.46026e-07 333.266M375 352.621L0 352.621" stroke="url(#paint1_linear_2399_5686)" stroke-opacity="0.2"/>
</g>
<defs>
<linearGradient id="paint0_linear_2399_5686" x1="70.1705" y1="1.07841e-05" x2="125.932" y2="198.547" gradientUnits="userSpaceOnUse">
<stop stop-color="#2A2A2A"/>
<stop offset="1"/>
</linearGradient>
<linearGradient id="paint1_linear_2399_5686" x1="375" y1="4.49121e-05" x2="123.5" y2="502" gradientUnits="userSpaceOnUse">
<stop stop-color="white"/>
<stop offset="0.437688" stop-color="#999999" stop-opacity="0"/>
</linearGradient>
<clipPath id="clip0_2399_5686">
<rect width="375" height="111" fill="white"/>
</clipPath>
</defs>
</svg>
