<?xml version="1.0" encoding="UTF-8"?>
<!DOCTYPE svg PUBLIC "-//W3C//DTD SVG 1.1//EN" "http://www.w3.org/Graphics/SVG/1.1/DTD/svg11.dtd">
<svg xmlns="http://www.w3.org/2000/svg" version="1.1" width="224px" height="160px" style="shape-rendering:geometricPrecision; text-rendering:geometricPrecision; image-rendering:optimizeQuality; fill-rule:evenodd; clip-rule:evenodd" xmlns:xlink="http://www.w3.org/1999/xlink">
<g><path style="opacity:1" fill="#fefefe" d="M -0.5,-0.5 C 74.1667,-0.5 148.833,-0.5 223.5,-0.5C 223.5,52.8333 223.5,106.167 223.5,159.5C 148.833,159.5 74.1667,159.5 -0.5,159.5C -0.5,106.167 -0.5,52.8333 -0.5,-0.5 Z"/></g>
<g><path style="opacity:1" fill="#2b6bf2" d="M 145.5,31.5 C 155.652,30.8175 160.152,35.4842 159,45.5C 152.667,53.5 146.333,53.5 140,45.5C 139.333,42.8333 139.333,40.1667 140,37.5C 141.699,35.3039 143.533,33.3039 145.5,31.5 Z"/></g>
<g><path style="opacity:1" fill="#9b9b9b" d="M 105.5,40.5 C 109.846,40.3343 114.179,40.501 118.5,41C 121.5,43.6797 123.166,47.013 123.5,51C 125.933,52.6324 128.433,54.1324 131,55.5C 133.899,53.6089 137.066,53.1089 140.5,54C 145.617,58.3912 147.783,63.8912 147,70.5C 141,76.5 141,82.5 147,88.5C 147.721,95.4509 145.221,100.951 139.5,105C 136.484,105.664 133.651,105.164 131,103.5C 128.315,105.26 125.482,106.594 122.5,107.5C 123.186,111.287 122.186,114.454 119.5,117C 114.618,118.555 109.618,118.888 104.5,118C 101.5,115.32 99.8336,111.987 99.5,108C 97.0666,106.368 94.5666,104.868 92,103.5C 89.0197,105.247 85.853,105.747 82.5,105C 77.4043,100.597 75.2377,95.0972 76,88.5C 82,82.5 82,76.5 76,70.5C 75.2377,63.9028 77.4043,58.4028 82.5,54C 85.853,53.2532 89.0197,53.7532 92,55.5C 94.235,53.6294 96.735,52.1294 99.5,51C 99.4134,46.226 101.413,42.726 105.5,40.5 Z"/></g>
<g><path style="opacity:1" fill="#fcfcfc" d="M 106.5,46.5 C 109.833,46.5 113.167,46.5 116.5,46.5C 116.223,49.4475 116.556,52.2809 117.5,55C 122.257,56.7965 126.757,58.9631 131,61.5C 133.248,60.771 135.415,59.771 137.5,58.5C 139.726,61.6189 141.393,64.9523 142.5,68.5C 140.516,68.3832 138.85,69.0499 137.5,70.5C 136.167,76.5 136.167,82.5 137.5,88.5C 139.167,89.6667 140.833,90.8333 142.5,92C 140.959,94.9156 139.293,97.7489 137.5,100.5C 135.998,99.9169 134.665,99.0836 133.5,98C 131.833,97.3333 130.167,97.3333 128.5,98C 125.282,100.777 121.615,102.777 117.5,104C 116.556,106.719 116.223,109.552 116.5,112.5C 113.167,112.5 109.833,112.5 106.5,112.5C 106.813,109.753 106.48,107.086 105.5,104.5C 101.504,102.837 97.8369,100.671 94.5,98C 92.8333,97.3333 91.1667,97.3333 89.5,98C 88.3349,99.0836 87.0016,99.9169 85.5,100.5C 83.7073,97.7489 82.0406,94.9156 80.5,92C 81.8168,90.3409 83.4835,89.1743 85.5,88.5C 86.8333,82.5 86.8333,76.5 85.5,70.5C 82.6271,69.8078 81.1271,68.1411 81,65.5C 82.5,63.1667 84,60.8333 85.5,58.5C 87.5851,59.771 89.7518,60.771 92,61.5C 96.3618,59.0678 100.862,56.7345 105.5,54.5C 106.48,51.9135 106.813,49.2469 106.5,46.5 Z"/></g>
<g><path style="opacity:1" fill="#9c9c9c" d="M 107.5,64.5 C 119.847,64.3487 126.014,70.3487 126,82.5C 121.746,93.4711 114.246,96.6377 103.5,92C 93.2477,81.1887 94.581,72.0221 107.5,64.5 Z"/></g>
<g><path style="opacity:1" fill="#fdfdfd" d="M 107.5,70.5 C 116.878,69.38 121.044,73.38 120,82.5C 115.996,89.1408 110.829,90.1408 104.5,85.5C 101.313,79.612 102.313,74.612 107.5,70.5 Z"/></g>
</svg>
