<?xml version="1.0" encoding="UTF-8"?>
<!DOCTYPE svg PUBLIC "-//W3C//DTD SVG 1.1//EN" "http://www.w3.org/Graphics/SVG/1.1/DTD/svg11.dtd">
<svg xmlns="http://www.w3.org/2000/svg" version="1.1" width="224px" height="160px" style="shape-rendering:geometricPrecision; text-rendering:geometricPrecision; image-rendering:optimizeQuality; fill-rule:evenodd; clip-rule:evenodd" xmlns:xlink="http://www.w3.org/1999/xlink">
<g><path style="opacity:1" fill="#fefefe" d="M -0.5,-0.5 C 74.1667,-0.5 148.833,-0.5 223.5,-0.5C 223.5,52.8333 223.5,106.167 223.5,159.5C 148.833,159.5 74.1667,159.5 -0.5,159.5C -0.5,106.167 -0.5,52.8333 -0.5,-0.5 Z"/></g>
<g><path style="opacity:1" fill="#2b6bf2" d="M 145.5,31.5 C 155.652,30.8175 160.152,35.4842 159,45.5C 152.667,53.5 146.333,53.5 140,45.5C 139.333,42.8333 139.333,40.1667 140,37.5C 141.699,35.3039 143.533,33.3039 145.5,31.5 Z"/></g>
<g><path style="opacity:1" fill="#040404" d="M 104.5,39.5 C 109.959,39.1033 115.292,39.6033 120.5,41C 122.718,43.7502 124.051,46.9168 124.5,50.5C 126.918,51.4572 129.084,52.7905 131,54.5C 134.716,52.066 138.549,51.8993 142.5,54C 145.23,57.9615 147.563,62.1281 149.5,66.5C 149.38,70.3797 147.547,73.0464 144,74.5C 143.333,77.8333 143.333,81.1667 144,84.5C 147.37,85.8702 149.203,88.3702 149.5,92C 147.826,95.8508 145.992,99.6841 144,103.5C 139.924,107.034 135.591,107.367 131,104.5C 129.084,106.209 126.918,107.543 124.5,108.5C 123.772,111.212 122.939,113.879 122,116.5C 120.829,117.893 119.329,118.727 117.5,119C 113.167,119.667 108.833,119.667 104.5,119C 103.069,118.535 101.903,117.701 101,116.5C 100.229,113.81 99.3958,111.144 98.5,108.5C 96.0824,107.543 93.9157,106.209 92,104.5C 88.284,106.934 84.4507,107.101 80.5,105C 77.6301,100.925 75.2967,96.5916 73.5,92C 73.7969,88.3702 75.6302,85.8702 79,84.5C 79.6667,81.1667 79.6667,77.8333 79,74.5C 75.6302,73.1298 73.7969,70.6298 73.5,67C 75.3814,61.9061 78.0481,57.2394 81.5,53C 85.1177,52.034 88.451,52.534 91.5,54.5C 93.6705,52.9138 96.0038,51.5804 98.5,50.5C 98.7154,45.7269 100.715,42.0603 104.5,39.5 Z"/></g>
<g><path style="opacity:1" fill="#fafafa" d="M 106.5,63.5 C 122.678,63.1677 129.178,70.8344 126,86.5C 120.039,95.2827 112.206,97.4493 102.5,93C 92.0827,81.5007 93.4161,71.6674 106.5,63.5 Z"/></g>
</svg>
