<svg width="20" height="20" viewBox="0 0 20 20" fill="none" xmlns="http://www.w3.org/2000/svg">
<path d="M10.0002 16.6666C11.7683 16.6666 13.464 15.9642 14.7142 14.714C15.9645 13.4637 16.6668 11.768 16.6668 9.99992C16.6668 8.23181 15.9645 6.53612 14.7142 5.28587C13.464 4.03563 11.7683 3.33325 10.0002 3.33325C8.23205 3.33325 6.53636 4.03563 5.28612 5.28587C4.03588 6.53612 3.3335 8.23181 3.3335 9.99992C3.3335 11.768 4.03588 13.4637 5.28612 14.714C6.53636 15.9642 8.23205 16.6666 10.0002 16.6666Z" stroke="#7E7E7E" stroke-width="1.16667" stroke-linecap="round" stroke-linejoin="round"/>
<path d="M10.0002 11.6666C10.4422 11.6666 10.8661 11.491 11.1787 11.1784C11.4912 10.8659 11.6668 10.4419 11.6668 9.99992C11.6668 9.55789 11.4912 9.13397 11.1787 8.82141C10.8661 8.50885 10.4422 8.33325 10.0002 8.33325C9.55814 8.33325 9.13421 8.50885 8.82165 8.82141C8.50909 9.13397 8.3335 9.55789 8.3335 9.99992C8.3335 10.4419 8.50909 10.8659 8.82165 11.1784C9.13421 11.491 9.55814 11.6666 10.0002 11.6666Z" stroke="#7E7E7E" stroke-width="1.16667" stroke-linecap="round" stroke-linejoin="round"/>
<path d="M10 1.66675V3.33341" stroke="#7E7E7E" stroke-width="1.16667" stroke-linecap="round" stroke-linejoin="round"/>
<path d="M10 18.3334V16.6667" stroke="#7E7E7E" stroke-width="1.16667" stroke-linecap="round" stroke-linejoin="round"/>
<path d="M14.1668 17.2166L13.3335 15.7749" stroke="#7E7E7E" stroke-width="1.16667" stroke-linecap="round" stroke-linejoin="round"/>
<path d="M9.16683 8.55845L5.8335 2.78345" stroke="#7E7E7E" stroke-width="1.16667" stroke-linecap="round" stroke-linejoin="round"/>
<path d="M17.2171 14.1666L15.7754 13.3333" stroke="#7E7E7E" stroke-width="1.16667" stroke-linecap="round" stroke-linejoin="round"/>
<path d="M2.7832 5.83325L4.22487 6.66659" stroke="#7E7E7E" stroke-width="1.16667" stroke-linecap="round" stroke-linejoin="round"/>
<path d="M11.6665 10H18.3332" stroke="#7E7E7E" stroke-width="1.16667" stroke-linecap="round" stroke-linejoin="round"/>
<path d="M1.6665 10H3.33317" stroke="#7E7E7E" stroke-width="1.16667" stroke-linecap="round" stroke-linejoin="round"/>
<path d="M17.2171 5.83325L15.7754 6.66659" stroke="#7E7E7E" stroke-width="1.16667" stroke-linecap="round" stroke-linejoin="round"/>
<path d="M2.7832 14.1666L4.22487 13.3333" stroke="#7E7E7E" stroke-width="1.16667" stroke-linecap="round" stroke-linejoin="round"/>
<path d="M14.1668 2.78345L13.3335 4.22511" stroke="#7E7E7E" stroke-width="1.16667" stroke-linecap="round" stroke-linejoin="round"/>
<path d="M9.16683 11.4417L5.8335 17.2167" stroke="#7E7E7E" stroke-width="1.16667" stroke-linecap="round" stroke-linejoin="round"/>
</svg>
