<svg width="42" height="40" viewBox="0 0 42 40" fill="none" xmlns="http://www.w3.org/2000/svg">
<g filter="url(#filter0_d_1_5380)">
<rect x="4" y="0.297729" width="34" height="32" rx="1" fill="#232323" shape-rendering="crispEdges"/>
<rect x="4.2" y="0.497729" width="33.6" height="31.6" rx="0.8" stroke="url(#paint0_linear_1_5380)" stroke-width="0.4" shape-rendering="crispEdges"/>
<path d="M31 15.5477H31.75L31.75 17.0477L31 17.0477L31 15.5477ZM31 17.0477L12 17.0477V15.5477L31 15.5477L31 17.0477ZM15.621 12.2977C15.621 14.8977 13.5751 17.0477 11 17.0477V15.5477C12.7007 15.5477 14.121 14.116 14.121 12.2977L15.621 12.2977ZM11 15.5477C13.5751 15.5477 15.6211 17.6977 15.6211 20.2977H14.1211C14.1211 18.4795 12.7007 17.0477 11 17.0477V15.5477Z" fill="white"/>
</g>
<defs>
<filter id="filter0_d_1_5380" x="0.3" y="0.297729" width="41.4" height="39.7" filterUnits="userSpaceOnUse" color-interpolation-filters="sRGB">
<feFlood flood-opacity="0" result="BackgroundImageFix"/>
<feColorMatrix in="SourceAlpha" type="matrix" values="0 0 0 0 0 0 0 0 0 0 0 0 0 0 0 0 0 0 127 0" result="hardAlpha"/>
<feOffset dy="4"/>
<feGaussianBlur stdDeviation="1.85"/>
<feComposite in2="hardAlpha" operator="out"/>
<feColorMatrix type="matrix" values="0 0 0 0 0 0 0 0 0 0 0 0 0 0 0 0 0 0 0.55 0"/>
<feBlend mode="normal" in2="BackgroundImageFix" result="effect1_dropShadow_1_5380"/>
<feBlend mode="normal" in="SourceGraphic" in2="effect1_dropShadow_1_5380" result="shape"/>
</filter>
<linearGradient id="paint0_linear_1_5380" x1="4" y1="2.41818" x2="38" y2="30.1773" gradientUnits="userSpaceOnUse">
<stop stop-color="#B2B2B2" stop-opacity="0.3"/>
<stop offset="1" stop-color="#4C4C4C"/>
</linearGradient>
</defs>
</svg>
