<svg width="24" height="25" viewBox="0 0 24 25" fill="none" xmlns="http://www.w3.org/2000/svg">
<path d="M20 13.5C20 18.5 16.5 21 12.34 22.45C12.1222 22.5238 11.8855 22.5203 11.67 22.44C7.5 21 4 18.5 4 13.5V6.50002C4 6.23481 4.10536 5.98045 4.29289 5.79292C4.48043 5.60538 4.73478 5.50002 5 5.50002C7 5.50002 9.5 4.30002 11.24 2.78002C11.4519 2.59902 11.7214 2.49957 12 2.49957C12.2786 2.49957 12.5481 2.59902 12.76 2.78002C14.51 4.31002 17 5.50002 19 5.50002C19.2652 5.50002 19.5196 5.60538 19.7071 5.79292C19.8946 5.98045 20 6.23481 20 6.50002V13.5Z" stroke="white" stroke-width="1.4" stroke-linecap="round" stroke-linejoin="round"/>
<path d="M4.24316 5.71002L18.6332 18.182" stroke="white" stroke-width="1.4" stroke-linecap="round" stroke-linejoin="round"/>
</svg>
