<svg width="38" height="41" viewBox="0 0 38 41" fill="none" xmlns="http://www.w3.org/2000/svg">
<path d="M29 29.1667V14.0001C29 12.8052 28.0283 11.8334 26.8333 11.8334H24.6667V9.66675H22.5V11.8334H16V9.66675H13.8333V11.8334H11.6667C10.4717 11.8334 9.5 12.8052 9.5 14.0001V29.1667C9.5 30.3617 10.4717 31.3334 11.6667 31.3334H26.8333C28.0283 31.3334 29 30.3617 29 29.1667ZM16 27.0001H13.8333V24.8334H16V27.0001ZM16 22.6667H13.8333V20.5001H16V22.6667ZM20.3333 27.0001H18.1667V24.8334H20.3333V27.0001ZM20.3333 22.6667H18.1667V20.5001H20.3333V22.6667ZM24.6667 27.0001H22.5V24.8334H24.6667V27.0001ZM24.6667 22.6667H22.5V20.5001H24.6667V22.6667ZM26.8333 17.2501H11.6667V15.0834H26.8333V17.2501Z" fill="#272727"/>
</svg>
