<svg width="14" height="15" viewBox="0 0 14 15" fill="none" xmlns="http://www.w3.org/2000/svg">
<path d="M8.13205 4.38397C9.7093 4.38397 10.382 5.05672 10.382 6.63397H11.882C11.882 4.21522 10.5508 2.88397 8.13205 2.88397V4.38397ZM10.6985 8.46622C10.5544 8.33523 10.3651 8.26537 10.1704 8.27139C9.97575 8.27741 9.79105 8.35883 9.6553 8.49847L7.86055 10.3442C7.42855 10.2617 6.56005 9.99097 5.66605 9.09922C4.77205 8.20447 4.5013 7.33372 4.42105 6.90472L6.2653 5.10922C6.40511 4.97356 6.48665 4.78883 6.49267 4.59412C6.49869 4.39941 6.42871 4.21 6.29755 4.06597L3.5263 1.01872C3.39508 0.874236 3.21271 0.786596 3.01791 0.774413C2.82312 0.76223 2.63125 0.826462 2.48305 0.953468L0.855548 2.34922C0.725881 2.47935 0.648487 2.65256 0.638047 2.83597C0.626797 3.02347 0.412297 7.46497 3.8563 10.9105C6.8608 13.9142 10.6243 14.134 11.6608 14.134C11.8123 14.134 11.9053 14.1295 11.93 14.128C12.1134 14.1177 12.2865 14.04 12.416 13.9097L13.811 12.2815C13.9381 12.1334 14.0025 11.9415 13.9905 11.7468C13.9784 11.552 13.8909 11.3695 13.7465 11.2382L10.6985 8.46622Z" fill="white"/>
</svg>
