<svg width="25" height="24" viewBox="0 0 25 24" fill="none" xmlns="http://www.w3.org/2000/svg">
<path d="M12.5 9C10.874 9 9.5 10.374 9.5 12C9.5 13.626 10.874 15 12.5 15C14.126 15 15.5 13.626 15.5 12C15.5 10.374 14.126 9 12.5 9Z" fill="white"/>
<path d="M20.5 5H17.914L15.207 2.293C15.1143 2.19996 15.0041 2.12617 14.8828 2.07589C14.7614 2.0256 14.6313 1.99981 14.5 2H10.5C10.3687 1.99981 10.2386 2.0256 10.1172 2.07589C9.9959 2.12617 9.88571 2.19996 9.793 2.293L7.086 5H4.5C3.397 5 2.5 5.897 2.5 7V18C2.5 19.103 3.397 20 4.5 20H20.5C21.603 20 22.5 19.103 22.5 18V7C22.5 5.897 21.603 5 20.5 5ZM12.5 17C9.79 17 7.5 14.71 7.5 12C7.5 9.29 9.79 7 12.5 7C15.21 7 17.5 9.29 17.5 12C17.5 14.71 15.21 17 12.5 17Z" fill="white"/>
</svg>
