<svg width="32" height="32" viewBox="0 0 32 32" fill="none" xmlns="http://www.w3.org/2000/svg">
<rect width="32" height="32" rx="1.33333" fill="#1C67F2" fill-opacity="0.1"/>
<path d="M24.772 14.155L23.404 10.051C23.2056 9.45348 22.8238 8.9337 22.3131 8.56551C21.8024 8.19732 21.1886 7.99944 20.559 8H11.441C10.8114 7.99944 10.1976 8.19732 9.68688 8.56551C9.17615 8.9337 8.79445 9.45348 8.596 10.051L7.228 14.155C6.86422 14.3072 6.55356 14.5636 6.33507 14.8918C6.11657 15.2201 6 15.6057 6 16V21C6 21.738 6.404 22.376 7 22.723V25C7 25.2652 7.10536 25.5196 7.29289 25.7071C7.48043 25.8946 7.73478 26 8 26H9C9.26522 26 9.51957 25.8946 9.70711 25.7071C9.89464 25.5196 10 25.2652 10 25V23H22V25C22 25.2652 22.1054 25.5196 22.2929 25.7071C22.4804 25.8946 22.7348 26 23 26H24C24.2652 26 24.5196 25.8946 24.7071 25.7071C24.8946 25.5196 25 25.2652 25 25V22.723C25.3034 22.549 25.5556 22.2981 25.7311 21.9956C25.9067 21.6932 25.9994 21.3497 26 21V16C26 15.6057 25.8834 15.2201 25.6649 14.8918C25.4464 14.5636 25.1358 14.3072 24.772 14.155ZM11.441 10H20.558C20.989 10 21.371 10.274 21.507 10.684L22.613 14H9.387L10.492 10.684C10.5583 10.4848 10.6857 10.3115 10.856 10.1888C11.0264 10.066 11.231 9.99995 11.441 10ZM9.5 20C9.30295 19.9999 9.10785 19.9611 8.92582 19.8856C8.7438 19.8101 8.57842 19.6995 8.43913 19.5602C8.29984 19.4208 8.18937 19.2553 8.11403 19.0733C8.03868 18.8912 7.99993 18.696 8 18.499C8.00007 18.302 8.03894 18.1068 8.11441 17.9248C8.18988 17.7428 8.30046 17.5774 8.43984 17.4381C8.57922 17.2988 8.74467 17.1884 8.92675 17.113C9.10882 17.0377 9.30395 16.9989 9.501 16.999C9.89896 16.9991 10.2806 17.1573 10.5619 17.4388C10.8432 17.7203 11.0011 18.102 11.001 18.5C11.0009 18.898 10.8427 19.2796 10.5612 19.5609C10.2797 19.8422 9.89796 20.0001 9.5 20ZM22.5 20C22.303 19.9999 22.1078 19.9611 21.9258 19.8856C21.7438 19.8101 21.5784 19.6995 21.4391 19.5602C21.2998 19.4208 21.1894 19.2553 21.114 19.0733C21.0387 18.8912 20.9999 18.696 21 18.499C21.0001 18.302 21.0389 18.1068 21.1144 17.9248C21.1899 17.7428 21.3005 17.5774 21.4398 17.4381C21.5792 17.2988 21.7447 17.1884 21.9267 17.113C22.1088 17.0377 22.304 16.9989 22.501 16.999C22.899 16.9991 23.2806 17.1573 23.5619 17.4388C23.8432 17.7203 24.0011 18.102 24.001 18.5C24.0009 18.898 23.8427 19.2796 23.5612 19.5609C23.2797 19.8422 22.898 20.0001 22.5 20Z" fill="#1C67F2"/>
</svg>
