<svg width="50" height="47" viewBox="0 0 50 47" fill="none" xmlns="http://www.w3.org/2000/svg">
<path d="M26.5652 6.13037H34.7391V10.2173H26.5652V6.13037ZM6.13039 16.3478H14.3043V20.4347H6.13039V16.3478ZM6.13039 32.6956H14.3043V36.7825H6.13039V32.6956ZM4.08691 24.5217H12.2404V28.6086H4.08691V24.5217ZM44.3577 13.7055L41.4683 10.8161L37.98 14.3043C35.7692 12.9682 33.2353 12.2616 30.6521 12.2608C22.7663 12.2608 16.3478 18.6794 16.3478 26.5652C16.3478 34.4509 22.7663 40.8695 30.6521 40.8695C38.5379 40.8695 44.9565 34.4509 44.9565 26.5652C44.9544 22.981 43.6008 19.5295 41.1658 16.8995L44.3577 13.7055ZM32.6956 28.6086H28.6087V18.3054H32.6956V28.6086Z" fill="#FD8047"/>
</svg>
