<svg width="28" height="29" viewBox="0 0 28 29" fill="none" xmlns="http://www.w3.org/2000/svg">
<path d="M25.1199 9.88698C24.3579 10.0974 23.9093 10.8922 24.1163 11.6666C24.3608 12.5813 24.4844 13.5339 24.4844 14.4924C24.4844 17.3678 23.3831 20.0709 21.3818 22.1018C19.3804 24.1357 16.7235 25.2549 13.894 25.2549C11.0646 25.2549 8.40474 24.1357 6.40628 22.1018C4.40495 20.068 3.30364 17.3678 3.30364 14.4924C3.30364 11.6169 4.40495 8.91388 6.40628 6.88295C8.40761 4.84909 11.0646 3.72989 13.894 3.72989C16.7235 3.72989 16.6832 4.0075 17.9772 4.55687C18.7047 4.86662 19.5415 4.51596 19.8434 3.77956C20.1482 3.04024 19.8031 2.18988 19.0785 1.88305C17.4337 1.18464 15.6912 0.831055 13.8969 0.831055C12.1026 0.831055 10.3227 1.19341 8.66353 1.90643C7.06189 2.59607 5.62415 3.58085 4.39057 4.83448C3.15699 6.08811 2.18796 7.54921 1.50935 9.17688C0.807731 10.863 0.451172 12.6514 0.451172 14.4953C0.451172 16.3392 0.807731 18.1276 1.50935 19.8137C2.18796 21.4414 3.15699 22.9025 4.39057 24.1561C5.62415 25.4097 7.06189 26.3945 8.66353 27.0842C10.3227 27.7972 12.0825 28.1595 13.8969 28.1595C15.7113 28.1595 17.4711 27.7972 19.1303 27.0842C20.7319 26.3945 22.1696 25.4097 23.4032 24.1561C24.6368 22.9025 25.6058 21.4414 26.2844 19.8137C26.9861 18.1276 27.3426 16.3392 27.3426 14.4953C27.3426 12.6514 27.1845 12.0728 26.8739 10.9098C26.6669 10.1354 25.8848 9.6795 25.1228 9.8899L25.1199 9.88698Z" fill="url(#paint0_linear_1156_10952)"/>
<path d="M9.43701 12.8092C8.87917 12.2423 7.97627 12.2423 7.41843 12.8092C6.86058 13.3761 6.86058 14.2937 7.41843 14.8606L12.186 19.7056C12.4534 19.9774 12.8186 20.1294 13.1953 20.1294C13.5719 20.1294 13.247 20.1294 13.2758 20.1294C13.6812 20.106 14.0579 19.9102 14.3109 19.5858L27.1742 3.91983C27.6659 3.29448 27.5653 2.38275 26.9499 1.88305C26.3346 1.38335 25.4374 1.48563 24.9457 2.11098L13.0802 16.5117L9.43701 12.8092Z" fill="url(#paint1_linear_1156_10952)"/>
<defs>
<linearGradient id="paint0_linear_1156_10952" x1="23.9351" y1="1.78082" x2="8.45823" y2="18.3115" gradientUnits="userSpaceOnUse">
<stop stop-color="#25E13E"/>
<stop offset="1" stop-color="#47EB30"/>
</linearGradient>
<linearGradient id="paint1_linear_1156_10952" x1="23.9351" y1="1.78082" x2="8.45823" y2="18.3115" gradientUnits="userSpaceOnUse">
<stop stop-color="#25E13E"/>
<stop offset="1" stop-color="#47EB30"/>
</linearGradient>
</defs>
</svg>
