<svg width="24" height="24" viewBox="0 0 24 24" fill="none" xmlns="http://www.w3.org/2000/svg">
<path d="M20 5H11.414L9.707 3.293C9.61429 3.19996 9.5041 3.12617 9.38276 3.07589C9.26143 3.0256 9.13134 2.99981 9 3H4C2.897 3 2 3.897 2 5V19C2 20.103 2.897 21 4 21H20C21.103 21 22 20.103 22 19V7C22 5.897 21.103 5 20 5ZM4 19V7H20L20.002 19H4Z" fill="#4D4D4D"/>
<path d="M7.874 12H15.874V14H7.874V12Z" fill="#4D4D4D"/>
<path d="M20 5H11.414L9.707 3.293C9.61429 3.19996 9.5041 3.12617 9.38276 3.07589C9.26143 3.0256 9.13134 2.99981 9 3H4C2.897 3 2 3.897 2 5V19C2 20.103 2.897 21 4 21H20C21.103 21 22 20.103 22 19V7C22 5.897 21.103 5 20 5ZM4 19V7H20L20.002 19H4Z" stroke="white" stroke-width="0.5"/>
<path d="M7.874 12H15.874V14H7.874V12Z" stroke="white" stroke-width="0.5"/>
</svg>
