<svg width="24" height="25" viewBox="0 0 24 25" fill="none" xmlns="http://www.w3.org/2000/svg">
<path d="M3.85019 9.58177C3.70423 8.92429 3.72665 8.24061 3.91535 7.59411C4.10405 6.9476 4.45294 6.35921 4.92966 5.88349C5.40638 5.40777 5.9955 5.06011 6.6424 4.87276C7.2893 4.68541 7.97303 4.66443 8.63019 4.81177C8.9919 4.24607 9.4902 3.78053 10.0791 3.45805C10.6681 3.13558 11.3287 2.96655 12.0002 2.96655C12.6716 2.96655 13.3323 3.13558 13.9212 3.45805C14.5102 3.78053 15.0085 4.24607 15.3702 4.81177C16.0284 4.66379 16.7133 4.68468 17.3612 4.87248C18.0091 5.06029 18.599 5.40891 19.076 5.88592C19.5531 6.36293 19.9017 6.95284 20.0895 7.60077C20.2773 8.2487 20.2982 8.9336 20.1502 9.59177C20.7159 9.95348 21.1814 10.4518 21.5039 11.0407C21.8264 11.6297 21.9954 12.2903 21.9954 12.9618C21.9954 13.6332 21.8264 14.2939 21.5039 14.8828C21.1814 15.4718 20.7159 15.9701 20.1502 16.3318C20.2975 16.9889 20.2765 17.6727 20.0892 18.3196C19.9018 18.9665 19.5542 19.5556 19.0785 20.0323C18.6027 20.509 18.0144 20.8579 17.3679 21.0466C16.7213 21.2353 16.0377 21.2577 15.3802 21.1118C15.019 21.6796 14.5203 22.1472 13.9303 22.4711C13.3404 22.795 12.6782 22.9648 12.0052 22.9648C11.3322 22.9648 10.67 22.795 10.0801 22.4711C9.49011 22.1472 8.99143 21.6796 8.63019 21.1118C7.97303 21.2591 7.2893 21.2381 6.6424 21.0508C5.9955 20.8634 5.40638 20.5158 4.92966 20.04C4.45294 19.5643 4.10405 18.9759 3.91535 18.3294C3.72665 17.6829 3.70423 16.9992 3.85019 16.3418C3.28015 15.981 2.81061 15.4819 2.48524 14.891C2.15988 14.3 1.98926 13.6364 1.98926 12.9618C1.98926 12.2872 2.15988 11.6235 2.48524 11.0326C2.81061 10.4416 3.28015 9.94252 3.85019 9.58177Z" stroke="black" stroke-width="1.4" stroke-linecap="round" stroke-linejoin="round"/>
<path d="M8 8.96179H16" stroke="black" stroke-width="1.4" stroke-linecap="round" stroke-linejoin="round"/>
<path d="M8 12.9618H16" stroke="black" stroke-width="1.4" stroke-linecap="round" stroke-linejoin="round"/>
<path d="M13 17.9618L8 16.9618H9C10.0609 16.9618 11.0783 16.5404 11.8284 15.7902C12.5786 15.0401 13 14.0227 13 12.9618C13 11.9009 12.5786 10.8835 11.8284 10.1334C11.0783 9.38322 10.0609 8.96179 9 8.96179" stroke="black" stroke-width="1.4" stroke-linecap="round" stroke-linejoin="round"/>
</svg>
