<svg width="24" height="24" viewBox="0 0 24 24" fill="none" xmlns="http://www.w3.org/2000/svg">
<path d="M20.1505 5V4.85H20.0005H5.00049C4.36555 4.85 3.85049 5.36625 3.85049 6V18C3.85049 18.6337 4.36555 19.15 5.00049 19.15H20.0015H20.1515V19V16V15.85H20.0015H14.0005C12.9803 15.85 12.1505 15.0202 12.1505 14V10C12.1505 8.97984 12.9803 8.15 14.0005 8.15H20.0005H20.1505V8V5ZM20.1505 10V9.85H20.0005H14.0005H13.8505V10V14V14.15H14.0005H20.0005H20.1505V14V10ZM5.00049 3.15H20.0005C21.0206 3.15 21.8505 3.97984 21.8505 5V19C21.8505 20.0202 21.0206 20.85 20.0005 20.85H5.00049C3.42933 20.85 2.15049 19.5712 2.15049 18V6C2.15049 4.42884 3.42933 3.15 5.00049 3.15Z" fill="#979797" stroke="white" stroke-width="0.3"/>
</svg>
