<svg width="34" height="34" viewBox="0 0 34 34" fill="none" xmlns="http://www.w3.org/2000/svg">
<path d="M32.6473 10.3827C31.7896 8.35772 30.565 6.53993 29.0061 4.98026C27.4471 3.4206 25.6301 2.19541 23.606 1.33741C21.5093 0.450325 19.2853 -0.000488281 16.9923 -0.000488281C14.6993 -0.000488281 12.4753 0.450325 10.3785 1.33741C8.35441 2.19541 6.53745 3.4206 4.97849 4.98026C3.41953 6.53993 2.1949 8.35772 1.33729 10.3827C0.45061 12.4805 0 14.7055 0 16.9995C0 19.2936 0.45061 21.5185 1.33729 23.6163C2.1949 25.6413 3.41953 27.4591 4.97849 29.0188C6.53745 30.5784 8.35441 31.8036 10.3785 32.6616C12.4753 33.5487 14.6993 33.9995 16.9923 33.9995C19.2853 33.9995 21.5093 33.5487 23.606 32.6616C25.6301 31.8036 27.4471 30.5784 29.0061 29.0188C30.565 27.4591 31.7896 25.6413 32.6473 23.6163C33.5339 21.5185 33.9845 19.2936 33.9845 16.9995C33.9845 14.7055 33.5339 12.4805 32.6473 10.3827ZM26.455 26.4666C23.9258 28.9969 20.5681 30.3894 16.9923 30.3894C13.4165 30.3894 10.0551 28.9969 7.52951 26.4666C5.00029 23.9362 3.6085 20.5769 3.6085 16.9995C3.6085 13.4221 5.00029 10.0592 7.52951 7.53245C10.0587 5.00208 13.4165 3.60965 16.9923 3.60965C20.5681 3.60965 23.9258 5.00208 26.455 7.53245C28.9843 10.0628 30.3761 13.4221 30.3761 16.9995C30.3761 20.5769 28.9843 23.9362 26.455 26.4666Z" fill="url(#paint0_linear_1156_10964)"/>
<path d="M24.9695 9.21551C24.2754 8.50294 23.1307 8.48839 22.4184 9.18279L16.9893 14.4762L11.5602 9.18279C10.848 8.48839 9.70693 8.50294 9.00922 9.21551C8.31514 9.92809 8.32967 11.0697 9.04192 11.7677L14.4056 16.9993L9.04192 22.2309C8.32967 22.9253 8.31514 24.0705 9.00922 24.7831C9.36171 25.1466 9.83049 25.3284 10.2993 25.3284C10.768 25.3284 11.2077 25.1576 11.5566 24.8158L16.9857 19.5224L22.4148 24.8158C22.7673 25.1576 23.2179 25.3284 23.6721 25.3284C24.1264 25.3284 24.6097 25.1466 24.9622 24.7831C25.6563 24.0705 25.6417 22.9289 24.9295 22.2309L19.5658 16.9993L24.9295 11.7677C25.6417 11.0733 25.6563 9.92809 24.9622 9.21551H24.9695Z" fill="url(#paint1_linear_1156_10964)"/>
<defs>
<linearGradient id="paint0_linear_1156_10964" x1="33.5812" y1="1.09019" x2="7.87445" y2="25.7205" gradientUnits="userSpaceOnUse">
<stop stop-color="#FD8047"/>
<stop offset="1" stop-color="#DF324E"/>
</linearGradient>
<linearGradient id="paint1_linear_1156_10964" x1="33.5819" y1="1.08997" x2="7.87514" y2="25.7203" gradientUnits="userSpaceOnUse">
<stop stop-color="#FD8047"/>
<stop offset="1" stop-color="#DF324E"/>
</linearGradient>
</defs>
</svg>
