<svg width="24" height="25" viewBox="0 0 24 25" fill="none" xmlns="http://www.w3.org/2000/svg">
<path d="M19 14.5C20.49 13.04 22 11.29 22 9C22 7.54131 21.4205 6.14236 20.3891 5.11091C19.3576 4.07946 17.9587 3.5 16.5 3.5C14.74 3.5 13.5 4 12 5.5C10.5 4 9.26 3.5 7.5 3.5C6.04131 3.5 4.64236 4.07946 3.61091 5.11091C2.57946 6.14236 2 7.54131 2 9C2 11.3 3.5 13.05 5 14.5L12 21.5L19 14.5Z" stroke="white" stroke-width="1.2" stroke-linecap="round" stroke-linejoin="round"/>
<path d="M12.0001 5.5L9.0401 8.46C8.83692 8.66171 8.67567 8.90162 8.56562 9.16593C8.45558 9.43023 8.39893 9.7137 8.39893 10C8.39893 10.2863 8.45558 10.5698 8.56562 10.8341C8.67567 11.0984 8.83692 11.3383 9.0401 11.54C9.8601 12.36 11.1701 12.39 12.0401 11.61L14.1101 9.71C14.629 9.23919 15.3045 8.97839 16.0051 8.97839C16.7057 8.97839 17.3813 9.23919 17.9001 9.71L20.8601 12.37" stroke="white" stroke-width="1.2" stroke-linecap="round" stroke-linejoin="round"/>
<path d="M18 15.5L16 13.5" stroke="white" stroke-width="1.2" stroke-linecap="round" stroke-linejoin="round"/>
<path d="M15 18.5L13 16.5" stroke="white" stroke-width="1.2" stroke-linecap="round" stroke-linejoin="round"/>
</svg>
