<svg width="24" height="24" viewBox="0 0 24 24" fill="none" xmlns="http://www.w3.org/2000/svg">
<path d="M20.85 10.9992V11.0001V20.0001C20.85 20.4907 20.6551 20.9613 20.3081 21.3082C19.9612 21.6551 19.4907 21.8501 19 21.8501H5C4.50935 21.8501 4.03879 21.6551 3.69185 21.3082C3.34491 20.9613 3.15 20.4907 3.15 20.0001V11.0004C3.15051 10.888 3.17328 10.7769 3.21702 10.6734C3.26079 10.5698 3.32468 10.4759 3.405 10.3972L3.405 10.3972L3.40607 10.3961L11.4058 2.39644C11.4058 2.39641 11.4058 2.39638 11.4058 2.39635C11.5651 2.2381 11.7805 2.14927 12.005 2.14927C12.2295 2.14927 12.4449 2.2381 12.6042 2.39635C12.6042 2.39638 12.6042 2.39641 12.6042 2.39644L20.6035 10.3957C20.6036 10.3958 20.6037 10.3958 20.6037 10.3959C20.6824 10.4753 20.7446 10.5694 20.7869 10.6729C20.8292 10.7764 20.8506 10.8873 20.85 10.9992ZM9.85 20.0001V20.1501H10H14H14.15V20.0001V15.0001V14.8501H14H10H9.85V15.0001V20.0001ZM4.89393 11.304L4.85 11.3479V11.4101V20.0001V20.1501H5H8H8.15V20.0001V15.0001C8.15 14.5094 8.34491 14.0389 8.69185 13.6919C9.0388 13.345 9.50935 13.1501 10 13.1501H14C14.4907 13.1501 14.9612 13.345 15.3081 13.6919C15.6551 14.0389 15.85 14.5094 15.85 15.0001V20.0001V20.1501H16H19H19.15V20.0001V11.4101V11.3479L19.1061 11.304L12.1061 4.30399L12 4.19793L11.8939 4.30399L4.89393 11.304Z" fill="#979797" stroke="white" stroke-width="0.3"/>
</svg>
