<svg width="24" height="24" viewBox="0 0 24 24" fill="none" xmlns="http://www.w3.org/2000/svg">
<rect width="24" height="24" rx="12" fill="#1C67F2"/>
<path d="M12.0633 5.71411C9.26267 5.71411 6.98394 7.99284 6.98394 10.7903C6.96553 14.8824 11.8703 18.2754 12.0633 18.4125C12.0633 18.4125 17.1611 14.8824 17.1427 10.7935C17.1427 7.99284 14.8639 5.71411 12.0633 5.71411ZM10.6658 13.9598H9.52362V12.8176L12.6836 9.66205L13.8258 10.8043L10.6658 13.9598ZM14.3636 10.2665L13.2214 9.12427L14.0925 8.25379L15.2347 9.39602L14.3636 10.2665Z" fill="white"/>
<path d="M10.6658 13.9598H9.52362V12.8176L12.6836 9.66205L13.8258 10.8043L10.6658 13.9598Z" fill="white"/>
<path d="M14.3636 10.2665L13.2214 9.12427L14.0925 8.25379L15.2347 9.39602L14.3636 10.2665Z" fill="white"/>
<rect x="8.88867" y="7.6189" width="6.34921" height="6.34921" rx="3.1746" fill="#1C67F2"/>
</svg>
