<svg width="32" height="32" viewBox="0 0 32 32" fill="none" xmlns="http://www.w3.org/2000/svg">
<rect width="32" height="32" rx="1.33333" fill="#1C67F2" fill-opacity="0.1"/>
<path d="M25 8H7C6.73478 8 6.48043 8.10536 6.29289 8.29289C6.10536 8.48043 6 8.73478 6 9V23C6 23.2652 6.10536 23.5196 6.29289 23.7071C6.48043 23.8946 6.73478 24 7 24H25C25.2652 24 25.5196 23.8946 25.7071 23.7071C25.8946 23.5196 26 23.2652 26 23V9C26 8.73478 25.8946 8.48043 25.7071 8.29289C25.5196 8.10536 25.2652 8 25 8ZM24 19C23.2044 19 22.4413 19.3161 21.8787 19.8787C21.3161 20.4413 21 21.2044 21 22H11C11 21.2044 10.6839 20.4413 10.1213 19.8787C9.55871 19.3161 8.79565 19 8 19V13C8.79565 13 9.55871 12.6839 10.1213 12.1213C10.6839 11.5587 11 10.7956 11 10H21C21 10.7956 21.3161 11.5587 21.8787 12.1213C22.4413 12.6839 23.2044 13 24 13V19Z" fill="#1C67F2"/>
<path d="M16 12C13.794 12 12 13.794 12 16C12 18.206 13.794 20 16 20C18.206 20 20 18.206 20 16C20 13.794 18.206 12 16 12ZM16 18C14.897 18 14 17.103 14 16C14 14.897 14.897 14 16 14C17.103 14 18 14.897 18 16C18 17.103 17.103 18 16 18Z" fill="#1C67F2"/>
</svg>
