<svg width="24" height="24" viewBox="0 0 24 24" fill="none" xmlns="http://www.w3.org/2000/svg">
<path d="M21 16V18C21 18.2652 20.8946 18.5196 20.7071 18.7071C20.5196 18.8946 20.2652 19 20 19H4C3.73478 19 3.48043 18.8946 3.29289 18.7071C3.10536 18.5196 3 18.2652 3 18V16C2.99981 15.8687 3.0256 15.7386 3.07589 15.6172C3.12617 15.4959 3.19996 15.3857 3.293 15.293L21 16ZM21 16C21.0002 15.8687 20.9744 15.7386 20.9241 15.6172M21 16L20.9241 15.6172M20.9241 15.6172C20.8738 15.4959 20.8 15.3857 20.707 15.293L20.9241 15.6172ZM18.85 13.586V13.6481L18.8939 13.6921L20.6009 15.3991L20.6011 15.3993C20.6802 15.478 20.7428 15.5716 20.7855 15.6747C20.8283 15.7777 20.8502 15.8882 20.85 15.9998V16V18C20.85 18.2254 20.7604 18.4416 20.601 18.601C20.4416 18.7604 20.2254 18.85 20 18.85H4C3.77457 18.85 3.55837 18.7604 3.39896 18.601C3.23955 18.4416 3.15 18.2254 3.15 18L3.15 16L3.15 15.9998C3.14984 15.8882 3.17174 15.7777 3.21446 15.6747C3.25717 15.5716 3.31984 15.478 3.39887 15.3993L3.39907 15.3991L5.10607 13.6921L5.15 13.6481V13.586V10C5.15 6.85268 7.28779 4.20126 10.1849 3.40261L10.2569 3.38276L10.2844 3.31335C10.5555 2.63054 11.2175 2.15 12 2.15C12.7825 2.15 13.4445 2.63054 13.7156 3.31335L13.7432 3.38279L13.8152 3.40262C16.7122 4.20027 18.85 6.85265 18.85 10V13.586ZM19 17.15H19.15V17V16.414V16.3519L19.1061 16.3079L17.3991 14.6009L17.3988 14.6007C17.2393 14.442 17.15 14.2264 17.15 14V10C17.15 7.16016 14.8398 4.85 12 4.85C9.16016 4.85 6.85 7.16016 6.85 10V14L6.85 14.0002C6.85016 14.1118 6.82826 14.2223 6.78555 14.3253C6.74283 14.4284 6.68016 14.522 6.60113 14.6007L6.60093 14.6009L4.89393 16.3079L4.85 16.3519V16.414V17V17.15H5H19ZM12.0002 21.85H11.9998C11.4117 21.8507 10.8379 21.6682 10.3583 21.3278C9.93707 21.0289 9.60682 20.6211 9.40164 20.15H14.5984C14.3932 20.6211 14.0629 21.0289 13.6417 21.3278C13.1621 21.6682 12.5883 21.8507 12.0002 21.85Z" fill="#979797" stroke="white" stroke-width="0.3"/>
</svg>
