<svg width="36" height="37" viewBox="0 0 36 37" fill="none" xmlns="http://www.w3.org/2000/svg">
<path d="M18.279 22.3281C17.3535 22.3281 16.8135 23.2086 16.8135 24.3876C16.8135 25.5741 17.37 26.4126 18.288 26.4126C19.2135 26.4126 19.7445 25.5306 19.7445 24.3516C19.7445 23.2626 19.2225 22.3281 18.279 22.3281Z" fill="#AD1A1A"/>
<path d="M21 3.5H9C8.20435 3.5 7.44129 3.81607 6.87868 4.37868C6.31607 4.94129 6 5.70435 6 6.5V30.5C6 31.2956 6.31607 32.0587 6.87868 32.6213C7.44129 33.1839 8.20435 33.5 9 33.5H27C27.7956 33.5 28.5587 33.1839 29.1213 32.6213C29.6839 32.0587 30 31.2956 30 30.5V12.5L21 3.5ZM13.7325 26.681C13.0935 27.212 12.123 27.4625 10.9365 27.4625C10.224 27.4625 9.7215 27.4175 9.3795 27.3725V21.416C9.99296 21.3277 10.6122 21.286 11.232 21.2915C12.384 21.2915 13.131 21.4985 13.7145 21.9395C14.3445 22.4075 14.7405 23.1545 14.7405 24.2225C14.7405 25.385 14.3175 26.186 13.7325 26.681ZM18.2175 27.5C16.4175 27.5 15.366 26.141 15.366 24.413C15.366 22.5965 16.5255 21.239 18.3165 21.239C20.178 21.239 21.195 22.6325 21.195 24.3065C21.1935 26.294 19.9875 27.5 18.2175 27.5ZM25.2 26.357C25.6125 26.357 26.0715 26.2655 26.343 26.159L26.55 27.2285C26.298 27.3545 25.731 27.4895 24.9945 27.4895C22.899 27.4895 21.819 26.186 21.819 24.458C21.819 22.3895 23.2935 21.239 25.1295 21.239C25.8405 21.239 26.379 21.383 26.622 21.509L26.343 22.598C25.9778 22.4471 25.5861 22.3706 25.191 22.373C24.102 22.373 23.256 23.03 23.256 24.38C23.256 25.5935 23.976 26.357 25.2 26.357ZM21 14H19.5V6.5L27 14H21Z" fill="#AD1A1A"/>
<path d="M11.3758 22.3445C11.0713 22.3445 10.8733 22.3715 10.7563 22.3985V26.366C10.8733 26.393 11.0623 26.393 11.2318 26.393C12.4738 26.402 13.2823 25.7195 13.2823 24.2705C13.2913 23.0105 12.5548 22.3445 11.3758 22.3445Z" fill="#AD1A1A"/>
</svg>
