<svg width="24" height="25" viewBox="0 0 24 25" fill="none" xmlns="http://www.w3.org/2000/svg">
<path d="M15.6858 15.5C15.1298 18.1299 13.8536 20.5534 11.9998 22.5C9.43207 19.8038 7.99984 16.2233 7.99984 12.5C7.99984 8.77674 9.43207 5.19615 11.9998 2.5C10.1517 2.50048 8.33986 3.01311 6.76543 3.98098C5.191 4.94885 3.91559 6.3341 3.08078 7.98294C2.24596 9.63178 1.88441 11.4797 2.03625 13.3216C2.1881 15.1635 2.8474 16.9273 3.94096 18.4171C5.03452 19.907 6.51957 21.0647 8.23125 21.7616C9.94292 22.4586 11.8143 22.6676 13.6375 22.3654C15.4608 22.0632 17.1646 21.2617 18.5599 20.0498C19.9552 18.8379 20.9874 17.263 21.5418 15.5" stroke="white" stroke-width="1.3" stroke-linecap="round" stroke-linejoin="round"/>
<path d="M2 12.5H10.5" stroke="white" stroke-width="1.3" stroke-linecap="round" stroke-linejoin="round"/>
<path d="M20 6.5V4.5C20 3.96957 19.7893 3.46086 19.4142 3.08579C19.0391 2.71071 18.5304 2.5 18 2.5C17.4696 2.5 16.9609 2.71071 16.5858 3.08579C16.2107 3.46086 16 3.96957 16 4.5V6.5" stroke="white" stroke-width="1.3" stroke-linecap="round" stroke-linejoin="round"/>
<path d="M21 6.5H15C14.4477 6.5 14 6.94772 14 7.5V10.5C14 11.0523 14.4477 11.5 15 11.5H21C21.5523 11.5 22 11.0523 22 10.5V7.5C22 6.94772 21.5523 6.5 21 6.5Z" stroke="white" stroke-width="1.3" stroke-linecap="round" stroke-linejoin="round"/>
</svg>
