<svg width="24" height="25" viewBox="0 0 24 25" fill="none" xmlns="http://www.w3.org/2000/svg">
<path d="M11.5248 2.75681C11.5687 2.66827 11.6364 2.59374 11.7203 2.54163C11.8042 2.48953 11.9011 2.46191 11.9998 2.46191C12.0986 2.46191 12.1955 2.48953 12.2794 2.54163C12.3633 2.59374 12.431 2.66827 12.4748 2.75681L14.7848 7.43581C14.937 7.74378 15.1617 8.01022 15.4395 8.21226C15.7173 8.41431 16.04 8.54592 16.3798 8.59581L21.5458 9.35181C21.6437 9.36599 21.7357 9.40728 21.8113 9.47101C21.887 9.53473 21.9433 9.61836 21.9739 9.71241C22.0045 9.80647 22.0081 9.90721 21.9844 10.0032C21.9607 10.0993 21.9107 10.1868 21.8398 10.2558L18.1038 13.8938C17.8575 14.1339 17.6731 14.4303 17.5667 14.7574C17.4602 15.0846 17.4349 15.4327 17.4928 15.7718L18.3748 20.9118C18.3921 21.0096 18.3816 21.1104 18.3443 21.2025C18.3071 21.2946 18.2448 21.3744 18.1644 21.4328C18.084 21.4912 17.9888 21.5258 17.8897 21.5327C17.7906 21.5396 17.6915 21.5185 17.6038 21.4718L12.9858 19.0438C12.6816 18.884 12.343 18.8006 11.9993 18.8006C11.6557 18.8006 11.3171 18.884 11.0128 19.0438L6.39585 21.4718C6.30818 21.5182 6.20924 21.5391 6.1103 21.5321C6.01135 21.525 5.91636 21.4904 5.83614 21.432C5.75592 21.3737 5.69368 21.294 5.6565 21.202C5.61933 21.1101 5.6087 21.0095 5.62585 20.9118L6.50685 15.7728C6.56504 15.4335 6.53983 15.0852 6.43338 14.7579C6.32694 14.4305 6.14245 14.134 5.89585 13.8938L2.15985 10.2568C2.08844 10.1878 2.03784 10.1002 2.01381 10.0039C1.98978 9.90756 1.99328 9.80643 2.02393 9.712C2.05457 9.61757 2.11111 9.53365 2.18712 9.46979C2.26313 9.40593 2.35555 9.36471 2.45385 9.35081L7.61885 8.59581C7.9591 8.54631 8.28224 8.41487 8.56043 8.21279C8.83863 8.01072 9.06355 7.74408 9.21585 7.43581L11.5248 2.75681Z" stroke="black" stroke-width="1.4" stroke-linecap="round" stroke-linejoin="round"/>
</svg>
