<svg width="24" height="25" viewBox="0 0 24 25" fill="none" xmlns="http://www.w3.org/2000/svg">
<path d="M2 7.96179L6.41 3.55179C6.59606 3.36462 6.81732 3.21613 7.06103 3.11487C7.30474 3.01361 7.56609 2.96158 7.83 2.96179H16.17C16.4339 2.96158 16.6953 3.01361 16.939 3.11487C17.1827 3.21613 17.4039 3.36462 17.59 3.55179L22 7.96179" stroke="black" stroke-width="1.4" stroke-linecap="round" stroke-linejoin="round"/>
<path d="M4 12.9618V20.9618C4 21.4922 4.21071 22.0009 4.58579 22.376C4.96086 22.7511 5.46957 22.9618 6 22.9618H18C18.5304 22.9618 19.0391 22.7511 19.4142 22.376C19.7893 22.0009 20 21.4922 20 20.9618V12.9618" stroke="black" stroke-width="1.4" stroke-linecap="round" stroke-linejoin="round"/>
<path d="M15 22.9618V18.9618C15 18.4314 14.7893 17.9227 14.4142 17.5476C14.0391 17.1725 13.5304 16.9618 13 16.9618H11C10.4696 16.9618 9.96086 17.1725 9.58579 17.5476C9.21071 17.9227 9 18.4314 9 18.9618V22.9618" stroke="black" stroke-width="1.4" stroke-linecap="round" stroke-linejoin="round"/>
<path d="M2 7.96179H22" stroke="black" stroke-width="1.4" stroke-linecap="round" stroke-linejoin="round"/>
<path d="M22 7.96179V10.9618C22 11.4922 21.7893 12.0009 21.4142 12.376C21.0391 12.7511 20.5304 12.9618 20 12.9618C19.4157 12.9296 18.8577 12.7085 18.41 12.3318C18.2907 12.2456 18.1472 12.1992 18 12.1992C17.8528 12.1992 17.7093 12.2456 17.59 12.3318C17.1423 12.7085 16.5843 12.9296 16 12.9618C15.4157 12.9296 14.8577 12.7085 14.41 12.3318C14.2907 12.2456 14.1472 12.1992 14 12.1992C13.8528 12.1992 13.7093 12.2456 13.59 12.3318C13.1423 12.7085 12.5843 12.9296 12 12.9618C11.4157 12.9296 10.8577 12.7085 10.41 12.3318C10.2907 12.2456 10.1472 12.1992 10 12.1992C9.85279 12.1992 9.70932 12.2456 9.59 12.3318C9.14227 12.7085 8.58426 12.9296 8 12.9618C7.41574 12.9296 6.85773 12.7085 6.41 12.3318C6.29068 12.2456 6.14721 12.1992 6 12.1992C5.85279 12.1992 5.70932 12.2456 5.59 12.3318C5.14227 12.7085 4.58426 12.9296 4 12.9618C3.46957 12.9618 2.96086 12.7511 2.58579 12.376C2.21071 12.0009 2 11.4922 2 10.9618V7.96179" stroke="black" stroke-width="1.4" stroke-linecap="round" stroke-linejoin="round"/>
</svg>
