<svg width="48" height="18" viewBox="0 0 48 18" fill="none" xmlns="http://www.w3.org/2000/svg">
<path d="M6.84 15.32C5.70667 15.32 4.72 15.1133 3.88 14.7C3.05333 14.2867 2.4 13.7133 1.92 12.98C1.44 12.2467 1.16 11.3933 1.08 10.42L3.3 10.28C3.39333 10.9467 3.58667 11.5133 3.88 11.98C4.17333 12.4333 4.56667 12.78 5.06 13.02C5.56667 13.2467 6.17333 13.36 6.88 13.36C7.49333 13.36 8.01333 13.2867 8.44 13.14C8.88 12.98 9.21333 12.7467 9.44 12.44C9.66667 12.1333 9.78 11.76 9.78 11.32C9.78 10.92 9.68 10.5667 9.48 10.26C9.29333 9.94 8.92667 9.65333 8.38 9.4C7.84667 9.13333 7.06 8.87333 6.02 8.62C4.88667 8.34 3.98 8.03333 3.3 7.7C2.62 7.36667 2.12667 6.95333 1.82 6.46C1.52667 5.95333 1.38 5.33333 1.38 4.6C1.38 3.78667 1.57333 3.07333 1.96 2.46C2.36 1.83333 2.92667 1.34667 3.66 0.999999C4.39333 0.653333 5.27333 0.48 6.3 0.48C7.38 0.48 8.3 0.68 9.06 1.08C9.83333 1.48 10.44 2.02667 10.88 2.72C11.3333 3.41333 11.6133 4.20667 11.72 5.1L9.5 5.22C9.43333 4.67333 9.26667 4.19333 9 3.78C8.73333 3.35333 8.37333 3.02667 7.92 2.8C7.46667 2.56 6.91333 2.44 6.26 2.44C5.43333 2.44 4.78 2.63333 4.3 3.02C3.83333 3.39333 3.6 3.89333 3.6 4.52C3.6 4.92 3.69333 5.26 3.88 5.54C4.08 5.80667 4.42667 6.04 4.92 6.24C5.42667 6.44 6.14 6.65333 7.06 6.88C8.28667 7.16 9.26 7.50667 9.98 7.92C10.7133 8.32 11.2333 8.79333 11.54 9.34C11.8467 9.88667 12 10.5067 12 11.2C12 12.04 11.78 12.7733 11.34 13.4C10.9133 14.0133 10.3133 14.4867 9.54 14.82C8.76667 15.1533 7.86667 15.32 6.84 15.32ZM14.213 15V0.799999H16.333V6.76L16.073 6.72C16.193 6.12 16.413 5.63333 16.733 5.26C17.053 4.87333 17.4463 4.58667 17.913 4.4C18.3796 4.21333 18.893 4.12 19.453 4.12C20.2263 4.12 20.8796 4.29333 21.413 4.64C21.9463 4.97333 22.3463 5.44667 22.613 6.06C22.893 6.67333 23.033 7.37333 23.033 8.16V15H20.913V8.72C20.913 7.76 20.7463 7.05333 20.413 6.6C20.093 6.13333 19.5863 5.9 18.893 5.9C18.1196 5.9 17.4996 6.14667 17.033 6.64C16.5663 7.12 16.333 7.82667 16.333 8.76V15H14.213ZM30.095 15.24C29.0817 15.24 28.195 15.0133 27.435 14.56C26.675 14.1067 26.0883 13.46 25.675 12.62C25.2617 11.78 25.055 10.8 25.055 9.68C25.055 8.54667 25.2617 7.56667 25.675 6.74C26.0883 5.91333 26.675 5.27333 27.435 4.82C28.195 4.35333 29.0817 4.12 30.095 4.12C31.1083 4.12 31.995 4.35333 32.755 4.82C33.515 5.27333 34.1017 5.91333 34.515 6.74C34.9283 7.56667 35.135 8.54667 35.135 9.68C35.135 10.8 34.9283 11.78 34.515 12.62C34.1017 13.46 33.515 14.1067 32.755 14.56C31.995 15.0133 31.1083 15.24 30.095 15.24ZM30.095 13.4C31.0017 13.4 31.7017 13.0733 32.195 12.42C32.6883 11.7533 32.935 10.84 32.935 9.68C32.935 8.52 32.6883 7.61333 32.195 6.96C31.7017 6.29333 31.0017 5.96 30.095 5.96C29.2017 5.96 28.5017 6.29333 27.995 6.96C27.5017 7.61333 27.255 8.52 27.255 9.68C27.255 10.84 27.5017 11.7533 27.995 12.42C28.5017 13.0733 29.2017 13.4 30.095 13.4ZM37.1975 18V4.36H39.1975L39.2575 6.64L39.0175 6.52C39.2842 5.73333 39.7242 5.14 40.3375 4.74C40.9508 4.32667 41.6575 4.12 42.4575 4.12C43.4975 4.12 44.3508 4.38 45.0175 4.9C45.6975 5.40667 46.1975 6.08 46.5175 6.92C46.8508 7.76 47.0175 8.68 47.0175 9.68C47.0175 10.68 46.8508 11.6 46.5175 12.44C46.1975 13.28 45.6975 13.96 45.0175 14.48C44.3508 14.9867 43.4975 15.24 42.4575 15.24C41.9242 15.24 41.4242 15.1467 40.9575 14.96C40.4908 14.7733 40.0908 14.5133 39.7575 14.18C39.4375 13.8333 39.2108 13.4267 39.0775 12.96L39.3175 12.72V18H37.1975ZM42.0775 13.4C42.9308 13.4 43.5975 13.0733 44.0775 12.42C44.5708 11.7667 44.8175 10.8533 44.8175 9.68C44.8175 8.50667 44.5708 7.59333 44.0775 6.94C43.5975 6.28667 42.9308 5.96 42.0775 5.96C41.5175 5.96 41.0308 6.1 40.6175 6.38C40.2042 6.64667 39.8842 7.06 39.6575 7.62C39.4308 8.18 39.3175 8.86667 39.3175 9.68C39.3175 10.4933 39.4242 11.18 39.6375 11.74C39.8642 12.3 40.1842 12.72 40.5975 13C41.0242 13.2667 41.5175 13.4 42.0775 13.4Z" fill="black"/>
</svg>
