<svg width="15" height="15" viewBox="0 0 15 15" fill="none" xmlns="http://www.w3.org/2000/svg">
<path d="M7.18323 1.29242C7.21245 1.23339 7.25758 1.18371 7.31353 1.14897C7.36949 1.11423 7.43404 1.09583 7.4999 1.09583C7.56576 1.09583 7.63031 1.11423 7.68626 1.14897C7.74222 1.18371 7.78735 1.23339 7.81656 1.29242L9.35656 4.41175C9.45802 4.61707 9.60777 4.79469 9.79298 4.92939C9.97819 5.06409 10.1933 5.15183 10.4199 5.18509L13.8639 5.68909C13.9292 5.69854 13.9905 5.72607 14.0409 5.76855C14.0913 5.81104 14.1289 5.86679 14.1492 5.92949C14.1696 5.9922 14.1721 6.05936 14.1563 6.12338C14.1405 6.1874 14.1071 6.24572 14.0599 6.29175L11.5692 8.71709C11.405 8.87716 11.2821 9.07474 11.2111 9.29284C11.1402 9.51094 11.1233 9.74301 11.1619 9.96909L11.7499 13.3958C11.7614 13.461 11.7544 13.5281 11.7296 13.5895C11.7048 13.651 11.6632 13.7042 11.6096 13.7431C11.556 13.782 11.4926 13.8051 11.4265 13.8097C11.3604 13.8143 11.2944 13.8002 11.2359 13.7691L8.15723 12.1504C7.95438 12.0439 7.72868 11.9883 7.49956 11.9883C7.27044 11.9883 7.04475 12.0439 6.8419 12.1504L3.7639 13.7691C3.70545 13.8 3.6395 13.8139 3.57353 13.8093C3.50757 13.8046 3.44424 13.7815 3.39076 13.7426C3.33728 13.7037 3.29579 13.6505 3.271 13.5892C3.24622 13.5279 3.23914 13.4609 3.25056 13.3958L3.8379 9.96975C3.8767 9.74358 3.85989 9.51135 3.78892 9.29312C3.71796 9.07488 3.59497 8.87719 3.43056 8.71709L0.939898 6.29242C0.892294 6.24644 0.85856 6.18802 0.842539 6.1238C0.826519 6.05959 0.828856 5.99217 0.849284 5.92921C0.869711 5.86626 0.907409 5.81032 0.958082 5.76774C1.00876 5.72517 1.07037 5.69769 1.1359 5.68842L4.57923 5.18509C4.80607 5.15209 5.02149 5.06446 5.20695 4.92975C5.39242 4.79503 5.54237 4.61727 5.6439 4.41175L7.18323 1.29242Z" stroke="black" stroke-width="1.33333" stroke-linecap="round" stroke-linejoin="round"/>
</svg>
