<svg width="343" height="21" viewBox="0 0 343 21" fill="none" xmlns="http://www.w3.org/2000/svg">
<rect width="81" height="1" rx="0.5" transform="matrix(-1 0 0 1 81 10)" fill="url(#paint0_linear_552_6664)"/>
<path d="M93.7197 16V5.22461H89.8174V3.31738H99.8984V5.22461H95.9873V16H93.7197ZM100.918 16V6.39355H103.106V7.87012H103.256C103.581 6.8418 104.46 6.23535 105.726 6.23535C106.06 6.23535 106.402 6.2793 106.613 6.34082V8.30078C106.262 8.23047 105.901 8.17773 105.523 8.17773C104.064 8.17773 103.106 9.04785 103.106 10.4189V16H100.918ZM112.273 16.1934C109.417 16.1934 107.686 14.2773 107.686 11.2188V11.21C107.686 8.18652 109.435 6.20898 112.168 6.20898C114.901 6.20898 116.589 8.125 116.589 11.0254V11.7461H109.874C109.9 13.4688 110.832 14.4707 112.317 14.4707C113.504 14.4707 114.181 13.873 114.392 13.4336L114.418 13.3721H116.501L116.475 13.4512C116.167 14.6904 114.884 16.1934 112.273 16.1934ZM112.194 7.92285C110.973 7.92285 110.059 8.74902 109.892 10.2783H114.453C114.304 8.70508 113.416 7.92285 112.194 7.92285ZM118.777 16V6.39355H120.966V7.86133H121.115C121.572 6.83301 122.495 6.20898 123.884 6.20898C126.028 6.20898 127.197 7.50098 127.197 9.78613V16H125.009V10.2959C125.009 8.80176 124.402 8.0459 123.075 8.0459C121.774 8.0459 120.966 8.95996 120.966 10.4014V16H118.777ZM133.244 16.1582C130.836 16.1582 129.307 14.251 129.307 11.21V11.1924C129.307 8.13379 130.81 6.23535 133.244 6.23535C134.562 6.23535 135.661 6.88574 136.162 7.92285H136.312V2.67578H138.509V16H136.312V14.4971H136.162C135.635 15.543 134.598 16.1582 133.244 16.1582ZM133.93 14.3125C135.424 14.3125 136.347 13.1348 136.347 11.21V11.1924C136.347 9.26758 135.415 8.08105 133.93 8.08105C132.444 8.08105 131.53 9.25879 131.53 11.1924V11.21C131.53 13.1436 132.436 14.3125 133.93 14.3125ZM142.385 4.78516C141.664 4.78516 141.075 4.21387 141.075 3.49316C141.075 2.78125 141.664 2.20117 142.385 2.20117C143.097 2.20117 143.686 2.78125 143.686 3.49316C143.686 4.21387 143.097 4.78516 142.385 4.78516ZM141.286 16V6.39355H143.475V16H141.286ZM146.164 16V6.39355H148.353V7.86133H148.502C148.959 6.83301 149.882 6.20898 151.271 6.20898C153.415 6.20898 154.584 7.50098 154.584 9.78613V16H152.396V10.2959C152.396 8.80176 151.789 8.0459 150.462 8.0459C149.161 8.0459 148.353 8.95996 148.353 10.4014V16H146.164ZM161.299 19.375C158.768 19.375 157.247 18.2939 157.027 16.6768L157.036 16.6504H159.225L159.233 16.6768C159.383 17.292 160.112 17.7227 161.334 17.7227C162.828 17.7227 163.698 17.0283 163.698 15.7979V13.9609H163.549C162.995 14.9893 161.949 15.5518 160.622 15.5518C158.188 15.5518 156.676 13.6709 156.676 10.9463V10.9287C156.676 8.15137 158.188 6.23535 160.666 6.23535C161.993 6.23535 163.03 6.88574 163.575 7.97559H163.689V6.39355H165.878V15.7627C165.878 17.9775 164.103 19.375 161.299 19.375ZM161.299 13.8115C162.819 13.8115 163.733 12.6426 163.733 10.9463V10.9287C163.733 9.23242 162.811 8.05469 161.299 8.05469C159.778 8.05469 158.917 9.23242 158.917 10.9287V10.9463C158.917 12.6426 159.778 13.8115 161.299 13.8115ZM178.877 16.3164C175.282 16.3164 173.05 13.7676 173.05 9.67188V9.6543C173.05 5.54102 175.273 3.00098 178.868 3.00098C181.751 3.00098 183.939 4.8291 184.238 7.42188V7.49219H182.015L182.006 7.45703C181.681 5.9541 180.468 4.96094 178.868 4.96094C176.715 4.96094 175.37 6.7627 175.37 9.64551V9.66309C175.37 12.5547 176.715 14.3564 178.877 14.3564C180.485 14.3564 181.681 13.46 182.006 12.0625L182.015 12.0186H184.238V12.0801C183.904 14.6201 181.804 16.3164 178.877 16.3164ZM189.16 16.1582C187.332 16.1582 186.005 15.0332 186.005 13.2842V13.2666C186.005 11.5527 187.314 10.5508 189.652 10.4102L192.122 10.2607V9.43457C192.122 8.47656 191.498 7.94922 190.32 7.94922C189.318 7.94922 188.668 8.30957 188.448 8.94238L188.439 8.97754H186.374L186.383 8.89844C186.594 7.28125 188.141 6.20898 190.426 6.20898C192.896 6.20898 194.284 7.4043 194.284 9.43457V16H192.122V14.6816H191.973C191.445 15.6133 190.426 16.1582 189.16 16.1582ZM188.167 13.1787C188.167 13.9961 188.861 14.4795 189.828 14.4795C191.146 14.4795 192.122 13.6182 192.122 12.4756V11.7021L189.96 11.8428C188.738 11.9219 188.167 12.3701 188.167 13.1611V13.1787ZM200.691 16.0439C198.485 16.0439 197.58 15.3057 197.58 13.4512V8.08984H196.086V6.39355H197.58V4.03809H199.804V6.39355H201.834V8.08984H199.804V12.9326C199.804 13.8906 200.182 14.2949 201.096 14.2949C201.403 14.2949 201.57 14.2861 201.834 14.2598V15.9473C201.518 16.0088 201.113 16.0439 200.691 16.0439ZM208.039 16.1934C205.183 16.1934 203.451 14.2773 203.451 11.2188V11.21C203.451 8.18652 205.2 6.20898 207.934 6.20898C210.667 6.20898 212.354 8.125 212.354 11.0254V11.7461H205.64C205.666 13.4688 206.598 14.4707 208.083 14.4707C209.27 14.4707 209.946 13.873 210.157 13.4336L210.184 13.3721H212.267L212.24 13.4512C211.933 14.6904 210.649 16.1934 208.039 16.1934ZM207.96 7.92285C206.738 7.92285 205.824 8.74902 205.657 10.2783H210.219C210.069 8.70508 209.182 7.92285 207.96 7.92285ZM218.674 19.375C216.143 19.375 214.622 18.2939 214.402 16.6768L214.411 16.6504H216.6L216.608 16.6768C216.758 17.292 217.487 17.7227 218.709 17.7227C220.203 17.7227 221.073 17.0283 221.073 15.7979V13.9609H220.924C220.37 14.9893 219.324 15.5518 217.997 15.5518C215.562 15.5518 214.051 13.6709 214.051 10.9463V10.9287C214.051 8.15137 215.562 6.23535 218.041 6.23535C219.368 6.23535 220.405 6.88574 220.95 7.97559H221.064V6.39355H223.253V15.7627C223.253 17.9775 221.478 19.375 218.674 19.375ZM218.674 13.8115C220.194 13.8115 221.108 12.6426 221.108 10.9463V10.9287C221.108 9.23242 220.186 8.05469 218.674 8.05469C217.153 8.05469 216.292 9.23242 216.292 10.9287V10.9463C216.292 12.6426 217.153 13.8115 218.674 13.8115ZM230.082 16.1934C227.199 16.1934 225.459 14.3125 225.459 11.2012V11.1836C225.459 8.09863 227.226 6.20898 230.082 6.20898C232.947 6.20898 234.705 8.08984 234.705 11.1836V11.2012C234.705 14.3125 232.956 16.1934 230.082 16.1934ZM230.082 14.418C231.603 14.418 232.464 13.2314 232.464 11.21V11.1924C232.464 9.1709 231.594 7.97559 230.082 7.97559C228.562 7.97559 227.691 9.1709 227.691 11.1924V11.21C227.691 13.2314 228.562 14.418 230.082 14.418ZM236.902 16V6.39355H239.091V7.87012H239.24C239.565 6.8418 240.444 6.23535 241.71 6.23535C242.044 6.23535 242.387 6.2793 242.598 6.34082V8.30078C242.246 8.23047 241.886 8.17773 241.508 8.17773C240.049 8.17773 239.091 9.04785 239.091 10.4189V16H236.902ZM245.56 19.375C245.296 19.375 244.988 19.3662 244.725 19.3398V17.6611C244.9 17.6787 245.146 17.6875 245.375 17.6875C246.271 17.6875 246.808 17.3184 247.045 16.4482L247.159 16.0088L243.723 6.39355H246.113L248.354 13.8994H248.521L250.754 6.39355H253.057L249.611 16.2021C248.785 18.6104 247.687 19.375 245.56 19.375Z" fill="url(#paint1_linear_552_6664)"/>
<rect x="262" y="10" width="81" height="1" rx="0.5" fill="url(#paint2_linear_552_6664)"/>
<defs>
<linearGradient id="paint0_linear_552_6664" x1="0.554795" y1="0" x2="79.8904" y2="0" gradientUnits="userSpaceOnUse">
<stop stop-color="#75551F"/>
<stop offset="1" stop-color="#B78634" stop-opacity="0"/>
</linearGradient>
<linearGradient id="paint1_linear_552_6664" x1="149.898" y1="2.52817e-06" x2="193.102" y2="21" gradientUnits="userSpaceOnUse">
<stop stop-color="#75551F"/>
<stop offset="1" stop-color="#B78634"/>
</linearGradient>
<linearGradient id="paint2_linear_552_6664" x1="262.555" y1="10" x2="341.89" y2="10" gradientUnits="userSpaceOnUse">
<stop stop-color="#75551F"/>
<stop offset="1" stop-color="#B78634" stop-opacity="0"/>
</linearGradient>
</defs>
</svg>
